<?xml version="1.0" encoding="UTF-8"?>
<svg id="Layer_2" data-name="Layer 2" xmlns="http://www.w3.org/2000/svg" viewBox="0 0 241.35 334.85">
  <defs>
    <style>
      .cls-1 {
        fill: #fff;
      }
    </style>
  </defs>
  <g id="Layer_1-2" data-name="Layer 1">
    <g>
      <g>
        <path class="cls-1" d="m122.55.4c1.44.61,2.84,1.31,4.24,2.01.42.21.84.41,1.27.62,1.38.68,2.76,1.36,4.15,2.05.97.48,1.95.96,2.92,1.44,2,.98,4,1.97,6,2.95,3.75,1.85,7.5,3.67,11.26,5.5,7.56,3.68,15.12,7.38,22.67,11.08,1.08.53,2.16,1.06,3.24,1.59,5.46,2.67,10.91,5.36,16.34,8.09,3.7,1.86,7.41,3.67,11.15,5.45,5.58,2.65,11.1,5.41,16.61,8.19,1.86.94,3.72,1.87,5.58,2.81.4.2.81.41,1.22.62,4,2.01,8.04,3.88,12.09,5.78v31.95c-2.17-.72-3.98-1.46-6-2.48-.3-.15-.59-.3-.9-.45-.94-.47-1.88-.95-2.82-1.42-.61-.31-1.22-.62-1.83-.92-1.25-.63-2.5-1.26-3.75-1.89-2.04-1.03-4.08-2.05-6.12-3.07-2.52-1.26-5.04-2.52-7.56-3.79-2.6-1.3-5.2-2.61-7.8-3.91-1.69-.85-3.38-1.7-5.08-2.54-6.84-3.43-13.68-6.85-20.6-10.13-5.06-2.41-10.06-4.93-15.06-7.45-4.7-2.37-9.42-4.7-14.18-6.96-3.81-1.81-7.58-3.68-11.33-5.6-.95-.48-1.9-.97-2.85-1.45-1.44-.74-2.88-1.48-4.32-2.22-1.42-.74-2.85-1.47-4.28-2.19-.43-.23-.86-.45-1.3-.68-2.48-1.25-4.03-1.88-6.78-1.01-2.04.88-4.01,1.87-5.99,2.89-.59.3-1.18.59-1.77.89-1.55.78-3.1,1.57-4.65,2.36-2.44,1.24-4.89,2.48-7.34,3.71-.6.3-1.2.61-1.81.91-4.89,2.47-9.82,4.87-14.77,7.22-2.69,1.28-5.36,2.61-8.02,3.95-3.76,1.9-7.55,3.74-11.35,5.54q-10.57,4.97-20.12,11.62c-.42.33-.84.65-1.27.99-4.55,3.73-8.23,9.56-8.88,15.52-.06,1.33-.06,2.64-.04,3.97,0,.44-.01.88-.02,1.34.03,6.26,2.34,11.84,6.63,16.4,6.37,6.01,14.92,9.98,23.13,12.82.33.11.66.23,1,.35,12.86,4.42,26.2,7.46,39.43,10.57,5.78,1.36,11.52,2.78,17.2,4.51,1.44.44,2.89.86,4.34,1.28,1.01.3,2.03.6,3.04.9,1.03.31,2.07.61,3.11.9,3.16.9,6.13,2.12,9.13,3.43.35.15.7.3,1.06.46,16.03,6.93,31.06,16.69,37.76,33.6,5.3,14.62,4.33,31.4-2.2,45.45-5.92,12.21-15.57,20.53-27.09,27.3-.28.17-.56.34-.84.51-5.72,3.42-11.94,5.48-18.23,7.6-.35.12-.7.25-1.07.37-4.92,1.72-10,2.62-15.12,3.53-.34.06-.68.12-1.02.18-8.56,1.52-16.91,2.25-25.6,2.22-.98,0-1.95,0-2.93,0-2.58,0-5.17,0-7.75-.01-2.44,0-4.87,0-7.31,0-7.1,0-14.19-.02-21.29-.03-15.87-.02-31.75-.04-48.1-.06v-125.89q3.34,2.86,4.72,4.09c6.86,6,15.17,12.08,23.89,14.99v78.68q16.26-.07,32.84-.15c3.4-.01,6.79-.02,10.29-.04q3.1-.02,6.2-.04c1.36,0,2.72-.01,4.08-.02,21.09-.04,45.1-1.62,61.15-17,5.13-5.36,7.33-12.26,7.28-19.57,0-.48,0-.95,0-1.44-.15-6.3-1.76-11.75-5.95-16.59-.31-.36-.62-.72-.93-1.09-7.22-7.79-17.87-11.39-27.68-14.64-.43-.14-.86-.29-1.3-.44-7.94-2.65-15.95-4.82-24.09-6.81-1.15-.28-2.29-.57-3.44-.85-4.22-1.04-8.45-2.08-12.68-3.08-.45-.11-.9-.21-1.36-.32-.82-.19-1.64-.38-2.46-.57-3.46-.81-6.82-1.87-10.19-2.97-1.72-.56-3.45-1.07-5.2-1.55-18.37-5.14-37.84-14.9-47.52-32.05-.23-.41-.47-.82-.71-1.24-4.03-7.59-5.19-15.06-5.14-23.58,0-.61,0-1.21-.01-1.84.03-14.12,5.68-26.54,15.58-36.49,9.26-9.04,21.04-15.13,32.61-20.69,1.35-.65,2.7-1.3,4.05-1.96,1.95-.95,3.91-1.89,5.86-2.84,5.31-2.57,10.61-5.17,15.91-7.77.53-.26,1.07-.52,1.62-.79,7.31-3.58,14.6-7.2,21.88-10.85,5.65-2.84,11.32-5.63,17.06-8.3.86-.42,1.7-.88,2.53-1.34,1.6-.68,2.02-.56,3.68-.07Z"/>
        <path class="cls-1" d="m212.68,97.2c1.73.69,3.35,1.41,5.01,2.24.51.26,1.03.51,1.56.78.55.28,1.1.55,1.66.83.57.29,1.15.57,1.72.86,1.2.6,2.39,1.2,3.59,1.8,1.53.77,3.07,1.54,4.61,2.3,1.18.59,2.36,1.18,3.54,1.77.84.42,1.68.84,2.53,1.26.51.25,1.02.51,1.54.77.45.22.9.45,1.36.68q1.02.54,1.5,1.02c.05.82.06,1.64.06,2.46,0,.54,0,1.07,0,1.63,0,.6,0,1.2,0,1.81q0,.94,0,1.91c0,1.76,0,3.51,0,5.27,0,1.89,0,3.78,0,5.67,0,3.28,0,6.55,0,9.83,0,4.74,0,9.47,0,14.21,0,7.69,0,15.37,0,23.06,0,7.47,0,14.93,0,22.4,0,.46,0,.93,0,1.41,0,3.63,0,7.27,0,10.9,0,17.82-.01,35.65-.02,53.47h-81.06c.68-1.37,1.59-1.52,2.98-2.15,5.8-2.84,10.49-7.27,15.14-11.68.33-.3.66-.6,1-.91,2.2-2.06,4.01-4.38,5.82-6.78.25-.32.49-.65.75-.98q.35-.47.71-.96c.21-.28.42-.56.63-.85.79-1.21,1.41-2.53,2.06-3.83h23.37V97.2Z"/>
      </g>
      <g>
        <g>
          <path class="cls-1" d="m44.41,321.6c-2.29-.67-4.13-1.53-5.52-2.59l2.44-5.41c1.33.98,2.91,1.76,4.74,2.35,1.83.59,3.66.89,5.5.89,2.04,0,3.55-.3,4.52-.91.98-.61,1.46-1.41,1.46-2.42,0-.74-.29-1.35-.86-1.84-.58-.49-1.32-.88-2.22-1.18-.9-.3-2.12-.62-3.66-.98-2.37-.56-4.3-1.12-5.81-1.68-1.51-.56-2.8-1.46-3.88-2.7-1.08-1.24-1.62-2.9-1.62-4.97,0-1.8.49-3.44,1.46-4.9.98-1.46,2.45-2.62,4.41-3.48,1.97-.86,4.37-1.29,7.2-1.29,1.98,0,3.92.24,5.81.71,1.89.47,3.55,1.15,4.97,2.04l-2.22,5.45c-2.87-1.63-5.74-2.44-8.6-2.44-2.01,0-3.5.33-4.46.98-.96.65-1.44,1.51-1.44,2.57s.55,1.86,1.66,2.37c1.11.52,2.8,1.03,5.08,1.53,2.36.56,4.3,1.12,5.81,1.68,1.51.56,2.8,1.45,3.88,2.66,1.08,1.21,1.62,2.85,1.62,4.92,0,1.77-.5,3.39-1.49,4.85-.99,1.46-2.48,2.62-4.46,3.48-1.98.86-4.39,1.29-7.23,1.29-2.45,0-4.83-.33-7.12-1Z"/>
          <path class="cls-1" d="m98.08,291.03v31.04h-7.18v-12.73h-14.1v12.73h-7.18v-31.04h7.18v12.24h14.1v-12.24h7.18Z"/>
          <path class="cls-1" d="m120.34,311.07v11h-7.18v-11.08l-12.02-19.95h7.63l8.29,13.79,8.29-13.79h7.05l-12.06,20.04Z"/>
          <path class="cls-1" d="m153.95,315.41h-14.41l-2.75,6.65h-7.36l13.83-31.04h7.09l13.88,31.04h-7.54l-2.75-6.65Zm-2.26-5.45l-4.92-11.88-4.92,11.88h9.84Z"/>
          <path class="cls-1" d="m195.72,322.07l-.04-18.62-9.13,15.34h-3.24l-9.09-14.94v18.22h-6.74v-31.04h5.94l11.62,19.29,11.44-19.29h5.9l.09,31.04h-6.74Z"/>
        </g>
        <g>
          <path class="cls-1" d="m59.89,326.49h1.53v8.24h-1.53v-8.24Z"/>
          <path class="cls-1" d="m78.03,326.49v8.24h-1.26l-4.55-5.58v5.58h-1.52v-8.24h1.26l4.55,5.58v-5.58h1.52Z"/>
          <path class="cls-1" d="m88.99,327.78h-2.73v-1.3h6.99v1.3h-2.73v6.95h-1.53v-6.95Z"/>
          <path class="cls-1" d="m107.65,333.45v1.28h-6.18v-8.24h6.02v1.28h-4.49v2.14h3.98v1.26h-3.98v2.27h4.65Z"/>
          <path class="cls-1" d="m121.82,334.73l-1.68-2.41c-.07,0-.18.01-.32.01h-1.86v2.4h-1.53v-8.24h3.39c.71,0,1.34.12,1.87.35.53.23.94.57,1.22,1.01.28.44.42.96.42,1.57s-.15,1.15-.45,1.6c-.3.45-.74.78-1.3,1l1.9,2.71h-1.65Zm-.55-6.52c-.35-.28-.85-.42-1.52-.42h-1.79v3.28h1.79c.67,0,1.17-.14,1.52-.43s.52-.69.52-1.22-.17-.93-.52-1.21Z"/>
          <path class="cls-1" d="m132.1,326.49h1.53v8.24h-1.53v-8.24Z"/>
          <path class="cls-1" d="m144.5,334.3c-.68-.37-1.21-.87-1.59-1.52-.39-.65-.58-1.37-.58-2.17s.19-1.53.58-2.17c.38-.65.91-1.15,1.59-1.52.67-.36,1.43-.55,2.27-.55s1.6.18,2.27.55c.67.36,1.2.87,1.59,1.51.38.64.58,1.37.58,2.18s-.19,1.53-.58,2.18c-.39.64-.91,1.15-1.59,1.51-.68.36-1.43.55-2.27.55s-1.6-.18-2.27-.55Zm3.76-1.17c.44-.25.78-.59,1.04-1.04.25-.44.38-.94.38-1.49s-.13-1.05-.38-1.49c-.25-.44-.6-.79-1.04-1.04-.44-.25-.93-.37-1.48-.37s-1.04.12-1.48.37c-.44.25-.79.59-1.04,1.04-.25.44-.38.94-.38,1.49s.13,1.05.38,1.49c.25.44.6.79,1.04,1.04.44.25.93.37,1.48.37s1.04-.12,1.48-.37Z"/>
          <path class="cls-1" d="m165.29,334.73l-1.68-2.41c-.07,0-.18.01-.32.01h-1.86v2.4h-1.53v-8.24h3.39c.71,0,1.34.12,1.87.35.53.23.94.57,1.22,1.01.28.44.42.96.42,1.57s-.15,1.15-.45,1.6c-.3.45-.74.78-1.3,1l1.9,2.71h-1.65Zm-.55-6.52c-.35-.28-.85-.42-1.52-.42h-1.79v3.28h1.79c.67,0,1.17-.14,1.52-.43s.52-.69.52-1.22-.17-.93-.52-1.21Z"/>
          <path class="cls-1" d="m176.28,334.58c-.59-.18-1.06-.42-1.41-.72l.53-1.19c.34.27.75.49,1.24.65.49.17.98.25,1.48.25.61,0,1.07-.1,1.37-.29.3-.2.45-.46.45-.78,0-.24-.08-.43-.25-.58-.17-.15-.38-.27-.64-.36s-.61-.18-1.06-.29c-.63-.15-1.14-.3-1.53-.45-.39-.15-.72-.38-1-.7-.28-.32-.42-.75-.42-1.29,0-.46.12-.87.37-1.24.25-.37.62-.67,1.12-.89.5-.22,1.11-.33,1.83-.33.5,0,1,.06,1.48.19s.91.31,1.26.54l-.48,1.19c-.36-.21-.74-.37-1.13-.48-.39-.11-.77-.16-1.14-.16-.6,0-1.05.1-1.35.31-.29.2-.44.47-.44.81,0,.24.08.43.25.58.17.15.38.27.64.35.26.09.61.18,1.06.29.61.14,1.11.29,1.51.44s.73.39,1.01.7c.28.31.42.74.42,1.27,0,.46-.12.87-.37,1.24-.25.37-.62.66-1.12.88-.5.22-1.11.33-1.84.33-.64,0-1.25-.09-1.84-.27Z"/>
        </g>
      </g>
    </g>
  </g>
</svg>