<?xml version="1.0" encoding="UTF-8"?>
<svg id="Layer_2" data-name="Layer 2" xmlns="http://www.w3.org/2000/svg" viewBox="0 0 214.88 93.96">
  <defs>
    <style>
      .cls-1 {
        fill: #082034;
      }

      .cls-2 {
        fill: #0d1f32;
      }

      .cls-3 {
        fill: #01627b;
      }
    </style>
  </defs>
  <g id="Layer_1-2" data-name="Layer 1">
    <g>
      <path class="cls-3" d="m42.11.14c.5.21.98.45,1.46.69.14.07.29.14.44.21.48.23.95.47,1.42.7.33.16.67.33,1,.49.69.34,1.37.68,2.06,1.01,1.29.63,2.58,1.26,3.87,1.89,2.6,1.26,5.19,2.54,7.79,3.81.37.18.74.36,1.11.55,1.88.92,3.75,1.84,5.61,2.78,1.27.64,2.55,1.26,3.83,1.87,1.92.91,3.81,1.86,5.71,2.81.64.32,1.28.64,1.92.96.14.07.28.14.42.21,1.37.69,9.85,5.57,11.24,6.23v10.98c-.74-.25-8.46-4.74-9.15-5.09-.1-.05-.2-.1-.31-.15-.32-.16-.65-.33-.97-.49-.21-.11-.42-.21-.63-.32-.43-.22-.86-.43-1.29-.65-.7-.35-1.4-.7-2.1-1.05-.87-.43-1.73-.87-2.6-1.3-.89-.45-1.79-.9-2.68-1.34-.58-.29-1.16-.58-1.74-.87-2.35-1.18-4.7-2.35-7.08-3.48-1.74-.83-3.46-1.69-5.18-2.56-1.62-.81-3.24-1.62-4.87-2.39-1.31-.62-2.6-1.26-3.89-1.93-.33-.17-.65-.33-.98-.5-.5-.25-.99-.51-1.48-.76-.49-.25-.98-.5-1.47-.75-.15-.08-.29-.16-.45-.24-.85-.43-1.38-.65-2.33-.35-.7.3-1.38.64-2.06.99-.2.1-.4.2-.61.31-.53.27-1.07.54-1.6.81-.84.43-1.68.85-2.52,1.28-.21.1-.41.21-.62.31-1.68.85-3.37,1.67-5.08,2.48-.93.44-1.84.9-2.76,1.36-1.29.65-2.59,1.29-3.9,1.9q-3.63,1.71-6.91,3.99c-.14.11-.29.22-.44.34-1.56,1.28-2.83,3.29-3.05,5.33-.02.46-.02.91-.02,1.36,0,.15,0,.3,0,.46,0,2.15.8,4.07,2.28,5.63,2.19,2.07,5.13,3.43,7.95,4.4.11.04.23.08.34.12,4.42,1.52,9,2.56,13.55,3.63,1.99.47,3.96.96,5.91,1.55.5.15.99.3,1.49.44.35.1.7.2,1.05.31.36.1.71.21,1.07.31,1.08.31,2.11.73,3.14,1.18.12.05.24.1.37.16,5.51,2.38,10.67,5.74,12.98,11.55,1.82,5.03,1.49,10.79-.76,15.62-2.03,4.2-5.35,7.05-9.31,9.38-.1.06-.19.12-.29.17-1.96,1.18-4.1,1.88-6.27,2.61-.12.04-.24.08-.37.13-1.69.59-3.44.9-5.19,1.21-.12.02-.23.04-.35.06-2.94.52-5.81.77-8.8.76-.34,0-.67,0-1.01,0-.89,0-1.78,0-2.66,0-.84,0-1.67,0-2.51,0-2.44,0-4.88,0-7.32-.01-5.45,0-10.91-.01-16.53-.02v-43.26q1.15.98,1.62,1.4c2.36,2.06,5.21,4.15,8.21,5.15v27.04q5.59-.03,11.29-.05c1.17,0,2.33,0,3.54-.01q1.06,0,2.13-.01c.47,0,.93,0,1.4,0,7.25-.01,15.5-.56,21.01-5.84,1.76-1.84,2.52-4.21,2.5-6.72,0-.16,0-.33,0-.49-.05-2.17-.61-4.04-2.05-5.7-.11-.12-.21-.25-.32-.38-2.48-2.68-6.14-3.91-9.51-5.03-.15-.05-.3-.1-.45-.15-2.73-.91-5.48-1.66-8.28-2.34-.39-.1-.79-.2-1.18-.29-1.45-.36-2.9-.72-4.36-1.06-.15-.04-.31-.07-.47-.11-.28-.07-.56-.13-.85-.2-1.19-.28-2.34-.64-3.5-1.02-.59-.19-1.19-.37-1.79-.53-6.31-1.77-13-5.12-16.33-11.01-.08-.14-.16-.28-.24-.43-1.39-2.61-1.78-5.17-1.76-8.1,0-.21,0-.42,0-.63,0-4.85,1.95-9.12,5.35-12.54,3.18-3.11,7.23-5.2,11.21-7.11.46-.22.93-.45,1.39-.67.67-.33,1.34-.65,2.01-.98,1.83-.88,3.65-1.78,5.47-2.67.18-.09.37-.18.56-.27,2.51-1.23,5.02-2.47,7.52-3.73,1.94-.98,3.89-1.93,5.86-2.85.3-.14.58-.3.87-.46.55-.23.69-.19,1.26-.03Z"/>
      <path class="cls-3" d="m73.08,33.4c.59.24,1.15.48,1.72.77.18.09.35.18.54.27.19.09.38.19.57.29.2.1.39.2.59.29.41.21.82.41,1.23.62.53.26,1.06.53,1.58.79.41.2.81.41,1.22.61.29.14.58.29.87.43.17.09.35.18.53.27.15.08.31.15.47.23q.35.19.51.35c.02.28.02.56.02.85,0,.18,0,.37,0,.56,0,.21,0,.41,0,.62q0,.32,0,.66c0,.6,0,1.21,0,1.81,0,.65,0,1.3,0,1.95,0,1.13,0,2.25,0,3.38,0,1.63,0,3.26,0,4.88,0,2.64,0,5.28,0,7.92,0,2.57,0,5.13,0,7.7,0,.16,0,.32,0,.48,0,1.25,0,2.5,0,3.75,0,6.12,0,12.25,0,18.37h-27.86c.24-.47.55-.52,1.02-.74,1.99-.98,3.61-2.5,5.2-4.01.11-.1.23-.21.34-.31.76-.71,1.38-1.51,2-2.33.08-.11.17-.22.26-.34q.12-.16.24-.33c.07-.1.14-.19.22-.29.27-.42.48-.87.71-1.31h8.03v-48.17Z"/>
    </g>
    <g>
      <g>
        <path class="cls-2" d="m107.95,83.69h2.85v10.07h-2.85v-10.07Z"/>
        <path class="cls-2" d="m125.57,83.69v10.07h-2.34l-4.45-5.37v5.37h-2.79v-10.07h2.35l4.45,5.37v-5.37h2.79Z"/>
        <path class="cls-2" d="m132.89,85.95h-3.09v-2.26h9.02v2.26h-3.08v7.81h-2.85v-7.81Z"/>
        <path class="cls-2" d="m151.13,91.56v2.2h-8.08v-10.07h7.9v2.2h-5.08v1.7h4.47v2.13h-4.47v1.84h5.27Z"/>
        <path class="cls-2" d="m160.28,91.09h-1.55v2.68h-2.85v-10.07h4.6c.91,0,1.7.15,2.37.45.67.3,1.19.73,1.55,1.3s.55,1.22.55,1.98-.17,1.36-.51,1.91c-.34.54-.83.97-1.46,1.27l2.17,3.16h-3.05l-1.83-2.68Zm1.35-4.76c-.3-.26-.74-.39-1.32-.39h-1.58v2.95h1.58c.59,0,1.03-.13,1.32-.38.3-.25.44-.62.44-1.09s-.15-.83-.44-1.09Z"/>
        <path class="cls-2" d="m169.69,83.69h2.85v10.07h-2.85v-10.07Z"/>
        <path class="cls-2" d="m179.94,93.29c-.85-.45-1.51-1.07-2-1.87-.48-.8-.73-1.69-.73-2.69s.24-1.89.73-2.69,1.15-1.42,2-1.87c.85-.45,1.81-.67,2.87-.67s2.02.22,2.87.67c.85.45,1.51,1.07,2,1.87s.73,1.69.73,2.69-.24,1.89-.73,2.69c-.48.79-1.15,1.42-2,1.87-.85.45-1.81.68-2.87.68s-2.02-.22-2.87-.68Zm4.25-2.04c.41-.24.74-.58.98-1.01.24-.44.36-.94.36-1.5s-.12-1.07-.36-1.5c-.24-.44-.57-.77-.98-1.01s-.87-.36-1.38-.36-.97.12-1.38.36c-.41.24-.74.58-.98,1.01-.24.44-.36.94-.36,1.5s.12,1.07.36,1.5c.24.44.56.77.98,1.01.41.24.87.36,1.38.36s.97-.12,1.38-.36Z"/>
        <path class="cls-2" d="m197.47,91.09h-1.55v2.68h-2.85v-10.07h4.6c.91,0,1.7.15,2.37.45.67.3,1.19.73,1.55,1.3s.55,1.22.55,1.98-.17,1.36-.51,1.91c-.34.54-.83.97-1.46,1.27l2.17,3.16h-3.05l-1.83-2.68Zm1.35-4.76c-.3-.26-.74-.39-1.32-.39h-1.58v2.95h1.58c.59,0,1.03-.13,1.32-.38.3-.25.44-.62.44-1.09s-.15-.83-.44-1.09Z"/>
        <path class="cls-2" d="m208.04,93.66c-.77-.2-1.39-.47-1.87-.81l.93-2.1c.45.3.97.54,1.57.72.6.18,1.18.27,1.75.27,1.09,0,1.64-.27,1.64-.82,0-.29-.16-.5-.47-.64-.31-.14-.81-.28-1.5-.44-.76-.16-1.39-.34-1.9-.52-.51-.19-.94-.49-1.31-.9-.36-.41-.55-.97-.55-1.67,0-.62.17-1.17.5-1.66s.84-.89,1.5-1.17c.67-.29,1.48-.43,2.45-.43.66,0,1.31.07,1.96.22s1.21.37,1.7.65l-.88,2.12c-.96-.52-1.89-.78-2.79-.78-.57,0-.98.08-1.24.25-.26.17-.39.38-.39.65s.15.47.46.6c.31.13.8.27,1.48.42.77.16,1.4.34,1.91.53.5.19.94.48,1.31.89.37.41.56.96.56,1.66,0,.6-.17,1.15-.5,1.64s-.84.88-1.51,1.17-1.49.44-2.44.44c-.82,0-1.61-.1-2.37-.3Z"/>
      </g>
      <g>
        <path class="cls-1" d="m120.35,75.39c-4.42-1.28-7.98-2.95-10.66-5.01l4.71-10.45c2.57,1.88,5.62,3.4,9.16,4.54,3.54,1.14,7.08,1.71,10.62,1.71,3.94,0,6.85-.58,8.74-1.76,1.88-1.17,2.83-2.73,2.83-4.67,0-1.43-.56-2.61-1.67-3.55-1.11-.94-2.54-1.7-4.28-2.27-1.74-.57-4.1-1.2-7.07-1.88-4.57-1.08-8.31-2.17-11.22-3.25-2.91-1.08-5.41-2.83-7.49-5.22-2.08-2.4-3.13-5.59-3.13-9.59,0-3.48.94-6.64,2.83-9.46s4.72-5.07,8.52-6.72c3.8-1.66,8.43-2.48,13.92-2.48,3.82,0,7.56.46,11.22,1.37,3.65.91,6.85,2.23,9.59,3.94l-4.28,10.53c-5.54-3.14-11.08-4.71-16.61-4.71-3.88,0-6.75.63-8.61,1.88-1.86,1.26-2.78,2.91-2.78,4.97s1.07,3.58,3.21,4.58c2.14,1,5.41,1.98,9.81,2.96,4.57,1.08,8.31,2.17,11.22,3.25,2.91,1.08,5.41,2.8,7.49,5.14,2.08,2.34,3.12,5.51,3.12,9.51,0,3.42-.96,6.55-2.87,9.38-1.91,2.83-4.78,5.07-8.61,6.72-3.83,1.66-8.48,2.48-13.96,2.48-4.74,0-9.32-.64-13.75-1.93Z"/>
        <path class="cls-1" d="m180.59,27.65h-19.18v-11.3h52.24v11.3h-19.18v48.64h-13.87V27.65Z"/>
      </g>
    </g>
  </g>
</svg>