<?xml version="1.0" encoding="UTF-8"?>
<svg id="Layer_2" data-name="Layer 2" xmlns="http://www.w3.org/2000/svg" viewBox="0 0 346.37 100.58">
  <defs>
    <style>
      .cls-1 {
        fill: #082034;
      }

      .cls-2 {
        fill: #01627b;
      }
    </style>
  </defs>
  <g id="Layer_1-2" data-name="Layer 1">
    <g>
      <path class="cls-2" d="m46.4.15c.55.23,1.07.5,1.61.76.16.08.32.16.48.24.52.26,1.05.52,1.57.78.37.18.74.36,1.11.55.76.37,1.51.75,2.27,1.12,1.42.7,2.84,1.39,4.26,2.08,2.86,1.39,5.72,2.79,8.58,4.2.41.2.82.4,1.23.6,2.07,1.01,4.13,2.03,6.19,3.06,1.4.7,2.81,1.39,4.22,2.06,2.11,1,4.2,2.05,6.29,3.1.7.35,1.41.71,2.11,1.06.15.08.31.15.46.23,1.51.76,3.04,1.47,4.58,2.19v12.1c-.82-.27-1.51-.55-2.27-.94-.11-.06-.22-.11-.34-.17-.36-.18-.71-.36-1.07-.54-.23-.12-.46-.23-.69-.35-.47-.24-.95-.48-1.42-.72-.77-.39-1.54-.78-2.32-1.16-.96-.48-1.91-.96-2.86-1.43-.98-.49-1.97-.99-2.96-1.48-.64-.32-1.28-.64-1.92-.96-2.59-1.3-5.18-2.59-7.8-3.83-1.92-.91-3.81-1.87-5.7-2.82-1.78-.9-3.57-1.78-5.37-2.63-1.44-.68-2.87-1.39-4.29-2.12-.36-.18-.72-.37-1.08-.55-.55-.28-1.09-.56-1.63-.84-.54-.28-1.08-.56-1.62-.83-.16-.09-.32-.17-.49-.26-.94-.47-1.52-.71-2.57-.38-.77.33-1.52.71-2.27,1.09-.22.11-.45.22-.67.34-.59.3-1.18.59-1.76.89-.93.47-1.85.94-2.78,1.41-.23.12-.46.23-.68.35-1.85.94-3.72,1.84-5.59,2.73-1.02.48-2.03.99-3.04,1.5-1.42.72-2.86,1.42-4.3,2.1q-4,1.88-7.62,4.4c-.16.12-.32.25-.48.37-1.72,1.41-3.12,3.62-3.36,5.88-.02.5-.02,1-.02,1.5,0,.17,0,.33,0,.51,0,2.37.88,4.48,2.51,6.21,2.41,2.28,5.65,3.78,8.76,4.85.12.04.25.09.38.13,4.87,1.67,9.92,2.82,14.93,4,2.19.51,4.36,1.05,6.51,1.71.55.17,1.1.33,1.64.49.38.11.77.23,1.15.34.39.12.78.23,1.18.34,1.2.34,2.32.8,3.46,1.3.13.06.27.11.4.17,6.07,2.62,11.76,6.32,14.3,12.72,2.01,5.54,1.64,11.89-.83,17.21-2.24,4.62-5.89,7.77-10.26,10.34-.11.06-.21.13-.32.19-2.16,1.3-4.52,2.08-6.9,2.88-.13.05-.27.09-.4.14-1.86.65-3.79.99-5.72,1.34-.13.02-.26.05-.39.07-3.24.57-6.4.85-9.69.84-.37,0-.74,0-1.11,0-.98,0-1.96,0-2.94,0-.92,0-1.84,0-2.77,0-2.69,0-5.37,0-8.06-.01-6.01,0-12.02-.01-18.21-.02v-47.67q1.26,1.08,1.79,1.55c2.6,2.27,5.74,4.57,9.05,5.67v29.79q6.16-.03,12.44-.06c1.29,0,2.57,0,3.9-.01q1.17,0,2.35-.01c.51,0,1.03,0,1.54,0,7.99-.01,17.08-.61,23.15-6.44,1.94-2.03,2.77-4.64,2.75-7.41,0-.18,0-.36,0-.55-.06-2.39-.67-4.45-2.25-6.28-.12-.14-.23-.27-.35-.41-2.73-2.95-6.77-4.31-10.48-5.54-.16-.05-.33-.11-.49-.17-3.01-1-6.04-1.82-9.12-2.58-.43-.11-.87-.21-1.3-.32-1.6-.4-3.2-.79-4.8-1.17-.17-.04-.34-.08-.52-.12-.31-.07-.62-.15-.93-.22-1.31-.31-2.58-.71-3.86-1.13-.65-.21-1.31-.4-1.97-.59-6.96-1.95-14.33-5.64-17.99-12.13-.09-.16-.18-.31-.27-.47-1.53-2.88-1.96-5.7-1.94-8.93,0-.23,0-.46,0-.7.01-5.35,2.15-10.05,5.9-13.82,3.51-3.42,7.97-5.73,12.35-7.83.51-.25,1.02-.49,1.54-.74.74-.36,1.48-.72,2.22-1.08,2.01-.97,4.02-1.96,6.02-2.94.2-.1.4-.2.61-.3,2.77-1.36,5.53-2.73,8.28-4.11,2.14-1.07,4.29-2.13,6.46-3.14.33-.16.64-.33.96-.51.61-.26.76-.21,1.39-.03Z"/>
      <path class="cls-2" d="m80.53,36.8c.66.26,1.27.53,1.9.85.19.1.39.19.59.29.21.1.42.21.63.32.22.11.43.22.65.33.45.23.91.45,1.36.68.58.29,1.16.58,1.74.87.45.22.89.45,1.34.67.32.16.64.32.96.48.19.1.38.19.58.29.17.09.34.17.52.26q.39.2.57.38c.02.31.02.62.02.93,0,.2,0,.41,0,.62,0,.23,0,.45,0,.69q0,.36,0,.72c0,.66,0,1.33,0,1.99,0,.72,0,1.43,0,2.15,0,1.24,0,2.48,0,3.72,0,1.79,0,3.59,0,5.38,0,2.91,0,5.82,0,8.73,0,2.83,0,5.65,0,8.48,0,.18,0,.35,0,.53,0,1.38,0,2.75,0,4.13,0,6.75,0,13.5,0,20.25h-30.69c.26-.52.6-.58,1.13-.81,2.2-1.08,3.97-2.75,5.73-4.42.13-.11.25-.23.38-.34.83-.78,1.52-1.66,2.2-2.57.09-.12.19-.25.28-.37q.13-.18.27-.36c.08-.11.16-.21.24-.32.3-.46.53-.96.78-1.45h8.85v-53.08Z"/>
    </g>
    <g>
      <g>
        <path class="cls-1" d="m124.33,74.58c-3.22-.93-5.8-2.15-7.76-3.64l3.43-7.6c1.87,1.37,4.09,2.47,6.67,3.3,2.57.83,5.15,1.25,7.72,1.25,2.87,0,4.98-.43,6.35-1.28,1.37-.85,2.06-1.98,2.06-3.4,0-1.04-.4-1.9-1.21-2.59-.81-.69-1.85-1.23-3.11-1.65-1.27-.41-2.98-.87-5.14-1.37-3.32-.79-6.04-1.58-8.16-2.37-2.12-.79-3.94-2.06-5.45-3.8-1.52-1.74-2.27-4.07-2.27-6.98,0-2.53.69-4.83,2.06-6.88,1.37-2.06,3.44-3.69,6.2-4.89,2.76-1.2,6.14-1.81,10.12-1.81,2.78,0,5.5.33,8.16,1,2.66.67,4.98,1.62,6.98,2.87l-3.11,7.66c-4.03-2.28-8.06-3.43-12.08-3.43-2.82,0-4.91.46-6.26,1.37-1.35.91-2.02,2.12-2.02,3.61s.78,2.61,2.34,3.33c1.56.73,3.93,1.44,7.13,2.15,3.32.79,6.04,1.58,8.16,2.37,2.12.79,3.93,2.04,5.45,3.74,1.52,1.7,2.27,4.01,2.27,6.91,0,2.49-.7,4.77-2.09,6.82-1.39,2.06-3.48,3.69-6.26,4.89-2.78,1.2-6.17,1.81-10.15,1.81-3.45,0-6.78-.47-10-1.4Z"/>
        <path class="cls-1" d="m199.73,31.63v43.61h-10.09v-17.88h-19.81v17.88h-10.09V31.63h10.09v17.19h19.81v-17.19h10.09Z"/>
        <path class="cls-1" d="m231,59.79v15.45h-10.09v-15.57l-16.88-28.03h10.71l11.65,19.37,11.65-19.37h9.91l-16.94,28.16Z"/>
        <path class="cls-1" d="m278.22,65.89h-20.25l-3.86,9.34h-10.34l19.44-43.61h9.97l19.5,43.61h-10.59l-3.86-9.34Zm-3.18-7.66l-6.92-16.69-6.91,16.69h13.83Z"/>
        <path class="cls-1" d="m336.9,75.24l-.06-26.16-12.83,21.55h-4.55l-12.77-20.99v25.6h-9.47V31.63h8.35l16.32,27.1,16.07-27.1h8.29l.12,43.61h-9.47Z"/>
      </g>
      <g>
        <path class="cls-1" d="m146.07,81.45h2.15v11.58h-2.15v-11.58Z"/>
        <path class="cls-1" d="m171.56,81.45v11.58h-1.77l-6.39-7.84v7.84h-2.13v-11.58h1.77l6.39,7.84v-7.84h2.13Z"/>
        <path class="cls-1" d="m186.95,83.27h-3.84v-1.82h9.83v1.82h-3.84v9.76h-2.15v-9.76Z"/>
        <path class="cls-1" d="m213.17,91.23v1.8h-8.69v-11.58h8.45v1.8h-6.3v3.01h5.59v1.77h-5.59v3.19h6.53Z"/>
        <path class="cls-1" d="m233.08,93.03l-2.37-3.39c-.1.01-.25.02-.45.02h-2.61v3.38h-2.15v-11.58h4.76c1,0,1.88.17,2.62.5.74.33,1.32.8,1.71,1.42.4.62.6,1.35.6,2.2s-.21,1.62-.64,2.25c-.42.63-1.03,1.1-1.83,1.41l2.66,3.8h-2.32Zm-.78-9.17c-.49-.4-1.2-.6-2.13-.6h-2.51v4.62h2.51c.94,0,1.65-.2,2.13-.6s.73-.97.73-1.71-.24-1.31-.73-1.7Z"/>
        <path class="cls-1" d="m247.52,81.45h2.15v11.58h-2.15v-11.58Z"/>
        <path class="cls-1" d="m264.94,92.43c-.95-.51-1.69-1.22-2.23-2.13-.54-.91-.81-1.93-.81-3.05s.27-2.14.81-3.05c.54-.91,1.28-1.62,2.23-2.13.95-.51,2.01-.77,3.19-.77s2.24.26,3.19.77c.95.51,1.69,1.22,2.23,2.13.54.9.81,1.92.81,3.06s-.27,2.16-.81,3.06c-.54.9-1.29,1.61-2.23,2.13-.95.51-2.01.77-3.19.77s-2.24-.26-3.19-.77Zm5.28-1.64c.62-.35,1.1-.83,1.46-1.46.35-.62.53-1.32.53-2.09s-.18-1.47-.53-2.09c-.35-.62-.84-1.11-1.46-1.46-.62-.35-1.31-.52-2.08-.52s-1.47.17-2.08.52c-.62.35-1.1.83-1.46,1.46-.35.62-.53,1.32-.53,2.09s.18,1.47.53,2.09c.35.62.84,1.11,1.46,1.46.62.35,1.31.52,2.08.52s1.47-.17,2.08-.52Z"/>
        <path class="cls-1" d="m294.15,93.03l-2.37-3.39c-.1.01-.25.02-.45.02h-2.61v3.38h-2.15v-11.58h4.76c1,0,1.88.17,2.62.5.74.33,1.31.8,1.71,1.42.4.62.6,1.35.6,2.2s-.21,1.62-.64,2.25c-.42.63-1.03,1.1-1.83,1.41l2.66,3.8h-2.32Zm-.78-9.17c-.49-.4-1.2-.6-2.13-.6h-2.51v4.62h2.51c.94,0,1.65-.2,2.13-.6s.73-.97.73-1.71-.24-1.31-.73-1.7Z"/>
        <path class="cls-1" d="m309.6,92.82c-.83-.25-1.49-.59-1.98-1.01l.74-1.67c.47.38,1.06.68,1.75.92.69.24,1.38.36,2.08.36.86,0,1.5-.14,1.93-.41.42-.28.64-.64.64-1.09,0-.33-.12-.6-.36-.82-.24-.22-.54-.38-.9-.5s-.86-.26-1.49-.41c-.88-.21-1.6-.42-2.14-.63-.55-.21-1.01-.54-1.41-.98-.39-.45-.59-1.05-.59-1.81,0-.64.17-1.22.52-1.75.35-.52.87-.94,1.57-1.25.7-.31,1.56-.46,2.57-.46.71,0,1.4.09,2.08.26s1.27.43,1.77.76l-.68,1.67c-.51-.3-1.04-.52-1.59-.68-.55-.15-1.09-.23-1.61-.23-.85,0-1.48.14-1.89.43-.41.29-.62.67-.62,1.14,0,.33.12.6.36.81.24.21.54.38.9.5.36.12.86.26,1.49.41.86.2,1.57.41,2.12.62s1.02.54,1.42.98c.39.44.59,1.04.59,1.79,0,.64-.17,1.22-.52,1.74-.35.52-.87.93-1.58,1.24-.71.31-1.57.46-2.58.46-.89,0-1.76-.13-2.59-.38Z"/>
      </g>
    </g>
  </g>
</svg>