<?xml version="1.0" encoding="UTF-8"?>
<svg id="Layer_2" data-name="Layer 2" xmlns="http://www.w3.org/2000/svg" viewBox="0 0 268.67 309.43">
  <defs>
    <style>
      .cls-1 {
        fill: #082034;
      }

      .cls-2 {
        fill: #18637b;
      }
    </style>
  </defs>
  <g id="Layer_1-2" data-name="Layer 1">
    <g>
      <g>
        <path class="cls-2" d="m136.21.4c1.44.61,2.84,1.31,4.24,2.01.42.21.84.41,1.27.62,1.38.68,2.76,1.36,4.15,2.05.97.48,1.95.96,2.92,1.44,2,.98,4,1.97,6,2.95,3.75,1.85,7.5,3.67,11.26,5.5,7.56,3.68,15.12,7.38,22.67,11.08,1.08.53,2.16,1.06,3.24,1.59,5.46,2.67,10.91,5.36,16.34,8.09,3.7,1.86,7.41,3.67,11.15,5.45,5.58,2.65,11.1,5.41,16.61,8.19,1.86.94,3.72,1.87,5.58,2.81.4.2.81.41,1.22.62,4,2.01,8.04,3.88,12.09,5.78v31.95c-2.17-.72-3.98-1.46-6-2.48-.3-.15-.59-.3-.9-.45-.94-.47-1.88-.95-2.82-1.42-.61-.31-1.22-.62-1.83-.92-1.25-.63-2.5-1.26-3.75-1.89-2.04-1.03-4.08-2.05-6.12-3.07-2.52-1.26-5.04-2.52-7.56-3.79-2.6-1.3-5.2-2.61-7.8-3.91-1.69-.85-3.38-1.7-5.08-2.54-6.84-3.43-13.68-6.85-20.6-10.13-5.06-2.41-10.06-4.93-15.06-7.45-4.7-2.37-9.42-4.7-14.18-6.96-3.81-1.81-7.58-3.68-11.33-5.6-.95-.48-1.9-.97-2.85-1.45-1.44-.74-2.88-1.48-4.32-2.22-1.42-.74-2.85-1.47-4.28-2.19-.43-.23-.86-.45-1.3-.68-2.48-1.25-4.03-1.88-6.78-1.01-2.04.88-4.01,1.87-5.99,2.89-.59.3-1.18.59-1.77.89-1.55.78-3.1,1.57-4.65,2.36-2.44,1.24-4.89,2.48-7.34,3.71-.6.3-1.2.61-1.81.91-4.89,2.47-9.82,4.87-14.77,7.22-2.69,1.28-5.36,2.61-8.02,3.95-3.76,1.9-7.55,3.74-11.35,5.54q-10.57,4.97-20.12,11.62c-.42.33-.84.65-1.27.99-4.55,3.73-8.23,9.56-8.88,15.52-.06,1.33-.06,2.64-.04,3.97,0,.44-.01.88-.02,1.34.03,6.26,2.34,11.84,6.63,16.4,6.37,6.01,14.92,9.98,23.13,12.82.33.11.66.23,1,.35,12.86,4.42,26.2,7.46,39.43,10.57,5.78,1.36,11.52,2.78,17.2,4.51,1.44.44,2.89.86,4.34,1.28,1.01.3,2.03.6,3.04.9,1.03.31,2.07.61,3.11.9,3.16.9,6.13,2.12,9.13,3.43.35.15.7.3,1.06.46,16.03,6.93,31.06,16.69,37.76,33.6,5.3,14.62,4.33,31.4-2.2,45.45-5.92,12.21-15.57,20.53-27.09,27.3-.28.17-.56.34-.84.51-5.72,3.42-11.94,5.48-18.23,7.6-.35.12-.7.25-1.07.37-4.92,1.72-10,2.62-15.12,3.53-.34.06-.68.12-1.02.18-8.56,1.52-16.91,2.25-25.6,2.22-.98,0-1.95,0-2.93,0-2.58,0-5.17,0-7.75-.01-2.44,0-4.87,0-7.31,0-7.1,0-14.19-.02-21.29-.03-15.87-.02-31.75-.04-48.1-.06v-125.89q3.34,2.86,4.72,4.09c6.86,6,15.17,12.08,23.89,14.99v78.68q16.26-.07,32.84-.15c3.4-.01,6.79-.02,10.29-.04q3.1-.02,6.2-.04c1.36,0,2.72-.01,4.08-.02,21.09-.04,45.1-1.62,61.15-17,5.13-5.36,7.33-12.26,7.28-19.57,0-.48,0-.95,0-1.44-.15-6.3-1.76-11.75-5.95-16.59-.31-.36-.62-.72-.93-1.09-7.22-7.79-17.87-11.39-27.68-14.64-.43-.14-.86-.29-1.3-.44-7.94-2.65-15.95-4.82-24.09-6.81-1.15-.28-2.29-.57-3.44-.85-4.22-1.04-8.45-2.08-12.68-3.08-.45-.11-.9-.21-1.36-.32-.82-.19-1.64-.38-2.46-.57-3.46-.81-6.82-1.87-10.19-2.97-1.72-.56-3.45-1.07-5.2-1.55-18.37-5.14-37.84-14.9-47.52-32.05-.23-.41-.47-.82-.71-1.24-4.03-7.59-5.19-15.06-5.14-23.58,0-.61,0-1.21-.01-1.84.03-14.12,5.68-26.54,15.58-36.49,9.26-9.04,21.04-15.13,32.61-20.69,1.35-.65,2.7-1.3,4.05-1.96,1.95-.95,3.91-1.89,5.86-2.84,5.31-2.57,10.61-5.17,15.91-7.77.53-.26,1.07-.52,1.62-.79,7.31-3.58,14.6-7.2,21.88-10.85,5.65-2.84,11.32-5.63,17.06-8.3.86-.42,1.7-.88,2.53-1.34,1.6-.68,2.02-.56,3.68-.07Z"/>
        <path class="cls-2" d="m226.34,97.2c1.73.69,3.35,1.41,5.01,2.24.51.26,1.03.51,1.56.78.55.28,1.1.55,1.66.83.57.29,1.15.57,1.72.86,1.2.6,2.39,1.2,3.59,1.8,1.53.77,3.07,1.54,4.61,2.3,1.18.59,2.36,1.18,3.54,1.77.84.42,1.68.84,2.53,1.26.51.25,1.02.51,1.54.77.45.22.9.45,1.36.68q1.02.54,1.5,1.02c.05.82.06,1.64.06,2.46,0,.54,0,1.07,0,1.63,0,.6,0,1.2,0,1.81q0,.94,0,1.91c0,1.76,0,3.51,0,5.27,0,1.89,0,3.78,0,5.67,0,3.28,0,6.55,0,9.83,0,4.74,0,9.47,0,14.21,0,7.69,0,15.37,0,23.06,0,7.47,0,14.93,0,22.4,0,.46,0,.93,0,1.41,0,3.63,0,7.27,0,10.9,0,17.82-.01,35.65-.02,53.47h-81.06c.68-1.37,1.59-1.52,2.98-2.15,5.8-2.84,10.49-7.27,15.14-11.68.33-.3.66-.6,1-.91,2.2-2.06,4.01-4.38,5.82-6.78.25-.32.49-.65.75-.98q.35-.47.71-.96c.21-.28.42-.56.63-.85.79-1.21,1.41-2.53,2.06-3.83h23.37V97.2Z"/>
      </g>
      <g>
        <path class="cls-1" d="m4.34,308.73c-1.78-.47-3.22-1.09-4.34-1.87l2.17-4.87c1.04.69,2.26,1.25,3.64,1.67,1.38.42,2.74.63,4.07.63,2.54,0,3.8-.63,3.8-1.9,0-.67-.36-1.16-1.08-1.48-.72-.32-1.88-.66-3.49-1.02-1.76-.38-3.22-.78-4.4-1.22s-2.19-1.13-3.04-2.08c-.85-.96-1.27-2.25-1.27-3.87,0-1.42.39-2.71,1.17-3.85.78-1.15,1.94-2.05,3.49-2.72,1.54-.67,3.44-1,5.69-1,1.53,0,3.05.17,4.54.52,1.49.34,2.8.85,3.94,1.52l-2.04,4.9c-2.22-1.2-4.38-1.8-6.47-1.8-1.31,0-2.27.2-2.87.58-.6.39-.9.9-.9,1.52s.35,1.09,1.07,1.4c.71.31,1.86.63,3.44.97,1.78.38,3.25.78,4.42,1.22s2.18,1.12,3.04,2.07c.86.95,1.28,2.23,1.28,3.85,0,1.4-.39,2.67-1.17,3.8-.78,1.13-1.95,2.04-3.5,2.72-1.56.68-3.45,1.02-5.67,1.02-1.89,0-3.72-.23-5.5-.7Z"/>
        <path class="cls-1" d="m30.19,290.85h-7.17v-5.24h20.91v5.24h-7.14v18.11h-6.6v-18.11Z"/>
        <path class="cls-1" d="m60.77,285.61h6.6v23.35h-6.6v-23.35Z"/>
        <path class="cls-1" d="m96.63,285.61v23.35h-5.44l-10.31-12.44v12.44h-6.47v-23.35h5.44l10.31,12.44v-12.44h6.47Z"/>
        <path class="cls-1" d="m108.6,290.85h-7.17v-5.24h20.91v5.24h-7.14v18.11h-6.6v-18.11Z"/>
        <path class="cls-1" d="m145.89,303.86v5.1h-18.75v-23.35h18.31v5.1h-11.77v3.94h10.37v4.94h-10.37v4.27h12.21Z"/>
        <path class="cls-1" d="m162.1,302.75h-3.6v6.2h-6.6v-23.35h10.67c2.11,0,3.95.35,5.5,1.05,1.56.7,2.76,1.7,3.6,3,.84,1.3,1.27,2.83,1.27,4.59s-.4,3.16-1.18,4.42c-.79,1.26-1.92,2.24-3.39,2.95l5.04,7.34h-7.07l-4.24-6.2Zm3.14-11.04c-.69-.6-1.71-.9-3.07-.9h-3.67v6.84h3.67c1.36,0,2.38-.29,3.07-.88.69-.59,1.03-1.43,1.03-2.52s-.35-1.93-1.03-2.54Z"/>
        <path class="cls-1" d="m178.91,285.61h6.6v23.35h-6.6v-23.35Z"/>
        <path class="cls-1" d="m197.68,307.86c-1.97-1.04-3.51-2.49-4.64-4.34s-1.68-3.92-1.68-6.24.56-4.39,1.68-6.24,2.67-3.29,4.64-4.34,4.19-1.57,6.65-1.57,4.69.52,6.65,1.57c1.97,1.04,3.51,2.49,4.64,4.34s1.68,3.92,1.68,6.24-.56,4.39-1.68,6.24-2.67,3.29-4.64,4.34c-1.97,1.04-4.19,1.57-6.65,1.57s-4.69-.52-6.65-1.57Zm9.86-4.74c.96-.56,1.71-1.34,2.27-2.35s.83-2.17.83-3.49-.28-2.47-.83-3.49-1.31-1.8-2.27-2.35-2.02-.83-3.2-.83-2.25.28-3.2.83c-.96.56-1.71,1.34-2.27,2.35s-.83,2.17-.83,3.49.28,2.47.83,3.49,1.31,1.8,2.27,2.35c.96.56,2.02.83,3.2.83s2.25-.28,3.2-.83Z"/>
        <path class="cls-1" d="m233.32,302.75h-3.6v6.2h-6.6v-23.35h10.67c2.11,0,3.95.35,5.5,1.05,1.56.7,2.76,1.7,3.6,3,.84,1.3,1.27,2.83,1.27,4.59s-.4,3.16-1.18,4.42c-.79,1.26-1.92,2.24-3.39,2.95l5.04,7.34h-7.07l-4.24-6.2Zm3.14-11.04c-.69-.6-1.71-.9-3.07-.9h-3.67v6.84h3.67c1.36,0,2.38-.29,3.07-.88.69-.59,1.03-1.43,1.03-2.52s-.35-1.93-1.03-2.54Z"/>
        <path class="cls-1" d="m252.83,308.73c-1.78-.47-3.22-1.09-4.34-1.87l2.17-4.87c1.04.69,2.26,1.25,3.64,1.67,1.38.42,2.74.63,4.07.63,2.54,0,3.8-.63,3.8-1.9,0-.67-.36-1.16-1.08-1.48-.72-.32-1.88-.66-3.49-1.02-1.76-.38-3.22-.78-4.4-1.22s-2.19-1.13-3.04-2.08c-.85-.96-1.27-2.25-1.27-3.87,0-1.42.39-2.71,1.17-3.85.78-1.15,1.94-2.05,3.49-2.72,1.54-.67,3.44-1,5.69-1,1.53,0,3.05.17,4.54.52,1.49.34,2.8.85,3.94,1.52l-2.04,4.9c-2.22-1.2-4.38-1.8-6.47-1.8-1.31,0-2.27.2-2.87.58-.6.39-.9.9-.9,1.52s.35,1.09,1.07,1.4c.71.31,1.86.63,3.44.97,1.78.38,3.25.78,4.42,1.22s2.18,1.12,3.04,2.07c.86.95,1.28,2.23,1.28,3.85,0,1.4-.39,2.67-1.17,3.8-.78,1.13-1.95,2.04-3.5,2.72-1.56.68-3.45,1.02-5.67,1.02-1.89,0-3.72-.23-5.5-.7Z"/>
      </g>
    </g>
  </g>
</svg>